<?xml version="1.0" encoding="utf-8"?>
<!-- Generator: Adobe Illustrator 18.0.0, SVG Export Plug-In . SVG Version: 6.00 Build 0)  -->
<!DOCTYPE svg PUBLIC "-//W3C//DTD SVG 1.1//EN" "http://www.w3.org/Graphics/SVG/1.1/DTD/svg11.dtd">
<svg version="1.1" id="Layer_1" xmlns="http://www.w3.org/2000/svg" xmlns:xlink="http://www.w3.org/1999/xlink" x="0px" y="0px"
	 width="16px" height="16px" viewBox="0 0 16 16" enable-background="new 0 0 16 16" xml:space="preserve">
<g>
	<g>
		<path fill="#FFFFFF" d="M4,16C4,16,4,16,4,16c-0.2,0-0.3-0.2-0.3-0.3l0.7-3.4c-1-1-1.3-2.6-1.6-5l0,0L2,2.9C1.9,2.5,2.3,2.1,2.8,2
			c0.5-0.1,1,0.1,1.1,0.6l0.6,3.3l0.3,0L4.4,1.1c0-0.5,0.4-0.9,1-0.9c0.5,0,1.1,0.2,1.1,0.8l0.4,4.9l0.2,0l0.3-5.1
			c0-0.3,0.2-0.5,0.5-0.7C8.2-0.1,8.7,0,9.1,0.2C9.4,0.4,9.5,0.7,9.5,1l-0.3,5l0.1,0l1-3.8c0.1-0.5,0.6-0.7,1.2-0.6
			c0.5,0.1,1,0.6,0.9,1.1c-0.2,0.8-0.4,1.5-0.6,2.3c-0.4,1.2-0.7,2.3-0.9,3.7c0.6-0.3,1.2-0.6,1.9-0.9c0.5-0.2,1.1,0.1,1.4,0.7
			c0.2,0.5,0.2,1.2-0.3,1.5c-0.4,0.2-0.8,0.4-1.3,0.5c-0.9,0.4-1.8,0.7-2.5,1.4c-0.3,0.4-0.6,0.7-1.1,0.9l0.5,2.8
			c0,0.1-0.1,0.3-0.2,0.3c-0.1,0-0.3-0.1-0.3-0.2l-0.6-3.1c0-0.1,0.1-0.3,0.2-0.3c0.4-0.1,0.7-0.4,1.1-0.8c0,0,0,0,0,0
			c0.8-0.8,1.7-1.2,2.7-1.6c0.4-0.2,0.8-0.3,1.2-0.5c0.2-0.1,0.2-0.5,0-0.8c0-0.1-0.3-0.6-0.7-0.4c-0.9,0.4-1.6,0.7-2.3,1.1
			c-0.1,0.1-0.2,0-0.3,0c-0.1-0.1-0.1-0.2-0.1-0.3c0.2-1.7,0.6-3,1-4.3c0.2-0.7,0.4-1.4,0.6-2.2c0.1-0.3-0.3-0.4-0.5-0.5
			c-0.2,0-0.5-0.1-0.5,0.2l-1.1,4c0,0.1-0.2,0.2-0.3,0.2L8.8,6.4c-0.1,0-0.2-0.1-0.2-0.3l0.3-5.2c0,0,0-0.2-0.2-0.3
			C8.6,0.5,8.3,0.5,8.1,0.6C7.9,0.7,7.9,0.8,7.9,0.8L7.6,6.2c0,0.1,0,0.1-0.1,0.2S7.4,6.4,7.3,6.4L6.6,6.4c-0.1,0-0.2-0.1-0.2-0.2
			L5.9,1c0-0.3-0.4-0.3-0.6-0.3C5.2,0.7,4.9,0.8,4.9,1l0.4,5c0,0.1-0.1,0.3-0.2,0.3L4.3,6.5C4.2,6.5,4.1,6.4,4,6.3L3.4,2.7
			c0-0.2-0.3-0.2-0.5-0.2c0,0-0.4,0.1-0.4,0.3l0.8,4.3c0,0,0,0,0,0l0,0c0.3,2.4,0.6,3.9,1.6,4.8C4.9,12.1,5,12.2,5,12.2l-0.7,3.5
			C4.2,15.9,4.1,16,4,16z"/>
	</g>
</g>
</svg>
