<?xml version="1.0" encoding="utf-8"?>
<!-- Generator: Adobe Illustrator 18.0.0, SVG Export Plug-In . SVG Version: 6.00 Build 0)  -->
<!DOCTYPE svg PUBLIC "-//W3C//DTD SVG 1.1//EN" "http://www.w3.org/Graphics/SVG/1.1/DTD/svg11.dtd">
<svg version="1.1" id="Layer_1" xmlns="http://www.w3.org/2000/svg" xmlns:xlink="http://www.w3.org/1999/xlink" width="33" height="43" x="0px" y="0px"
	 viewBox="0 0 33 43" enable-background="new 0 0 33 43" xml:space="preserve">
<g>
	<g>
		<path fill="#333333" d="M5.4,43c0,0-0.1,0-0.1,0c-0.4-0.1-0.6-0.5-0.6-0.9L6.5,33c-2.8-2.8-3.6-7-4.4-13.5l0,0L0,7.9
			c-0.2-1.2,0.7-2.3,2.2-2.6C3.5,5,5,5.6,5.2,7l1.5,8.9l0.7-0.1L6.4,2.9C6.3,1.6,7.4,0.5,9,0.4c1.4-0.1,3,0.6,3.1,2.2l1.1,13.2
			l0.5,0l0.9-13.6c0-0.8,0.5-1.4,1.2-1.8c1-0.5,2.4-0.4,3.4,0.2c0.7,0.5,1.1,1.2,1,2l-0.8,13.3l0.3,0.1l2.7-10.1
			c0.3-1.3,1.6-1.9,3.2-1.5c1.4,0.4,2.7,1.5,2.3,3.1c-0.5,2.2-1.1,4.2-1.7,6.1c-1,3.1-1.9,6.1-2.4,9.9c1.6-0.8,3.3-1.6,5.2-2.4
			c1.4-0.6,2.9,0.2,3.7,1.9c0.7,1.5,0.6,3.3-0.8,4c-1.2,0.6-2.3,1-3.4,1.5c-2.5,1-4.8,2-6.8,3.9c-0.8,1-1.6,1.7-2.9,2.3l1.4,7.6
			c0.1,0.4-0.2,0.8-0.6,0.8c-0.4,0.1-0.8-0.2-0.8-0.6l-1.5-8.2c-0.1-0.4,0.1-0.7,0.5-0.8c1.2-0.4,1.9-1,2.9-2.1c0,0,0,0,0.1-0.1
			c2.2-2.1,4.7-3.1,7.3-4.2c1.1-0.4,2.2-0.9,3.3-1.4c0.5-0.3,0.5-1.3,0.1-2.1c-0.1-0.2-0.8-1.6-1.8-1.2c-2.3,1-4.4,1.9-6.3,3
			c-0.2,0.1-0.5,0.1-0.7,0c-0.2-0.1-0.4-0.4-0.3-0.7c0.5-4.6,1.5-8.2,2.6-11.6c0.6-1.9,1.2-3.9,1.7-6c0.2-0.7-0.7-1.2-1.2-1.3
			c-0.5-0.1-1.3-0.1-1.5,0.5L20.8,17c-0.1,0.4-0.5,0.6-0.8,0.5l-1.6-0.3c-0.4-0.1-0.6-0.4-0.6-0.8l0.9-14c0-0.1,0-0.4-0.4-0.7
			c-0.5-0.4-1.4-0.4-2-0.2c-0.4,0.2-0.4,0.4-0.4,0.6L15,16.6c0,0.2-0.1,0.4-0.2,0.5c-0.1,0.1-0.3,0.2-0.5,0.2l-1.8-0.1
			c-0.4,0-0.6-0.3-0.7-0.7L10.6,2.6c-0.1-0.7-1-0.9-1.5-0.8c-0.5,0-1.3,0.3-1.2,1l1.1,13.5c0,0.4-0.2,0.7-0.6,0.8l-2.1,0.4
			c-0.4,0.1-0.8-0.2-0.8-0.6L3.8,7.3C3.7,6.7,2.9,6.6,2.4,6.7c0,0-1.1,0.2-1,0.9l2,11.7c0,0,0,0,0,0l0,0.1C4.3,25.7,5,29.8,7.7,32.2
			C7.9,32.4,8,32.7,8,32.9l-1.9,9.5C6,42.8,5.7,43,5.4,43z"/>
	</g>
</g>
</svg>
