<?xml version="1.0" encoding="UTF-8"?>
<svg id="Layer_1" xmlns="http://www.w3.org/2000/svg" viewBox="0 0 111.33 80">
  <path style="fill#000000;fill-opacity:0.4" d="m74.22,32.43c-4.81,0-8.82,3.71-8.82,9.8v.12c0,5.92,4.06,9.8,8.82,9.8s8.87-3.94,8.87-9.8v-.12c0-5.92-4.18-9.8-8.87-9.8Z"/>
  <path style="fill#000000;fill-opacity:0.4" d="m93.33,0H18C8.07,0,0,8.07,0,18v44c0,9.93,8.07,18,18,18h75.33c9.93,0,18-8.07,18-18V18c0-9.93-8.07-18-18-18Zm-44.6,57.6h-7.02v-17.4c0-4.76-2.38-7.48-6.55-7.48s-6.9,2.84-6.9,7.6v17.28h-7.02V15.27h7.02v16.41c1.97-2.84,4.81-5.34,9.57-5.34,6.9,0,10.9,4.64,10.9,11.72v19.55Zm41.26,9.28h-7.02v-14.38c-2.26,3.19-5.45,5.74-10.44,5.74-7.19,0-14.21-5.74-14.21-15.89v-.12c0-10.15,6.9-15.89,14.21-15.89,5.05,0,8.24,2.49,10.44,5.39v-4.76h7.02v39.9Z"/>
</svg>
