<?xml version="1.0" encoding="UTF-8"?>
<svg id="Layer_1" data-name="Layer 1" xmlns="http://www.w3.org/2000/svg" viewBox="0 0 1167.97 373.42">
  <defs>
    <style>
      .cls-1 {
        fill: #e27474;
      }

      .cls-2 {
        fill: #fab516;
      }

      .cls-3 {
        fill: #2e2e2e;
      }

      .cls-4 {
        fill: #f16f26;
      }

      .cls-5 {
        fill: #1aaf4b;
      }

      .cls-6 {
        fill: #58b6db;
      }
    </style>
  </defs>
  <g>
    <g>
      <rect class="cls-6" x="76.19" y="220.11" width="162.13" height="81.33" rx="16.47" ry="16.47"/>
      <g>
        <path class="cls-3" d="M100.02,247.51h8.01v4.06c1.95-2.64,4.64-4.59,8.81-4.59,6.59,0,12.87,5.17,12.87,14.61v.11c0,9.44-6.17,14.6-12.87,14.6-4.27,0-6.91-1.95-8.81-4.22v12.13h-8.01v-36.7ZM121.69,261.7v-.11c0-4.69-3.16-7.8-6.91-7.8s-6.85,3.11-6.85,7.8v.11c0,4.69,3.11,7.8,6.85,7.8s6.91-3.06,6.91-7.8Z"/>
        <path class="cls-3" d="M138.14,237.28h8.01v38.49h-8.01v-38.49Z"/>
        <path class="cls-3" d="M154.33,267.66v-.11c0-6.17,4.69-9.02,11.39-9.02,2.85,0,4.9.48,6.91,1.16v-.47c0-3.32-2.06-5.17-6.06-5.17-3.06,0-5.22.58-7.8,1.53l-2-6.12c3.11-1.37,6.17-2.27,10.97-2.27,4.38,0,7.54,1.16,9.54,3.16,2.11,2.11,3.06,5.22,3.06,9.02v16.4h-7.75v-3.06c-1.95,2.16-4.64,3.58-8.54,3.58-5.32,0-9.7-3.06-9.7-8.65ZM172.73,265.81v-1.42c-1.37-.63-3.16-1.05-5.11-1.05-3.43,0-5.54,1.37-5.54,3.9v.11c0,2.16,1.79,3.43,4.38,3.43,3.74,0,6.27-2.06,6.27-4.96Z"/>
        <path class="cls-3" d="M207.38,247.51h8.33l-10.86,28.95c-2.16,5.75-4.48,7.91-9.28,7.91-2.9,0-5.06-.74-7.12-1.95l2.69-5.8c1.05.63,2.37,1.11,3.43,1.11,1.37,0,2.11-.42,2.79-1.85l-11.07-28.37h8.49l6.43,19.25,6.17-19.25Z"/>
      </g>
    </g>
    <g>
      <rect class="cls-1" x="262.15" y="220.11" width="266.75" height="81.33" rx="16.47" ry="16.47"/>
      <g>
        <path class="cls-3" d="M289.33,267.76v-13.39h-3.37v-6.85h3.37v-7.22h8.01v7.22h6.64v6.85h-6.64v12.07c0,1.85.79,2.74,2.58,2.74,1.48,0,2.79-.37,3.95-1v6.43c-1.69,1-3.64,1.63-6.33,1.63-4.9,0-8.23-1.95-8.23-8.49Z"/>
        <path class="cls-3" d="M311.32,261.8v-.11c0-8.12,6.54-14.71,15.34-14.71s15.24,6.49,15.24,14.61v.11c0,8.12-6.54,14.71-15.34,14.71s-15.24-6.49-15.24-14.6ZM333.99,261.8v-.11c0-4.17-3.01-7.8-7.44-7.8s-7.33,3.53-7.33,7.7v.11c0,4.17,3,7.8,7.43,7.8s7.33-3.53,7.33-7.7Z"/>
        <path class="cls-3" d="M349.71,265.81v-18.3h8.01v15.77c0,3.8,1.79,5.75,4.85,5.75s5.01-1.95,5.01-5.75v-15.77h8.01v28.26h-8.01v-4.01c-1.85,2.37-4.22,4.53-8.28,4.53-6.06,0-9.6-4.01-9.6-10.49Z"/>
        <path class="cls-3" d="M385.41,247.51h8.01v5.7c1.63-3.9,4.27-6.43,9.02-6.22v8.38h-.42c-5.33,0-8.59,3.22-8.59,9.97v10.44h-8.01v-28.26Z"/>
        <path class="cls-3" d="M410.67,247.51h8.01v4.01c1.85-2.37,4.22-4.53,8.28-4.53,6.06,0,9.6,4.01,9.6,10.49v18.3h-8.01v-15.76c0-3.8-1.79-5.75-4.85-5.75s-5.01,1.95-5.01,5.75v15.76h-8.01v-28.26Z"/>
        <path class="cls-3" d="M444.36,261.8v-.11c0-8.07,5.75-14.71,13.97-14.71,9.44,0,13.76,7.33,13.76,15.34,0,.63-.05,1.37-.1,2.11h-19.67c.79,3.64,3.32,5.54,6.91,5.54,2.69,0,4.64-.84,6.85-2.9l4.59,4.06c-2.64,3.27-6.43,5.27-11.55,5.27-8.49,0-14.76-5.96-14.76-14.6ZM464.29,259.43c-.48-3.58-2.58-6.01-5.96-6.01s-5.48,2.37-6.12,6.01h12.07Z"/>
        <path class="cls-3" d="M497.94,247.51h8.33l-10.86,28.95c-2.16,5.75-4.48,7.91-9.28,7.91-2.9,0-5.06-.74-7.12-1.95l2.69-5.8c1.05.63,2.37,1.11,3.43,1.11,1.37,0,2.11-.42,2.79-1.85l-11.07-28.37h8.49l6.43,19.25,6.17-19.25Z"/>
      </g>
    </g>
    <g>
      <rect class="cls-5" x="552.72" y="220.11" width="110.96" height="81.33" rx="16.47" ry="16.47"/>
      <g>
        <path class="cls-3" d="M576.48,237.28h8.01v14.24c1.85-2.37,4.22-4.53,8.28-4.53,6.06,0,9.6,4.01,9.6,10.49v18.3h-8.01v-15.76c0-3.8-1.79-5.75-4.85-5.75s-5.01,1.95-5.01,5.75v15.76h-8.01v-38.49Z"/>
        <path class="cls-3" d="M631.89,271.71c-1.95,2.64-4.64,4.59-8.81,4.59-6.59,0-12.87-5.17-12.87-14.6v-.11c0-9.44,6.17-14.61,12.87-14.61,4.27,0,6.91,1.95,8.81,4.22v-3.69h8.01v36.7h-8.01v-12.5ZM632,261.7v-.11c0-4.69-3.11-7.8-6.85-7.8s-6.91,3.06-6.91,7.8v.11c0,4.69,3.16,7.8,6.91,7.8s6.85-3.11,6.85-7.8Z"/>
      </g>
    </g>
    <g>
      <rect class="cls-2" x="687.5" y="220.11" width="244.58" height="81.33" rx="16.47" ry="16.47"/>
      <g>
        <path class="cls-3" d="M711.32,247.51h8.01v4.01c1.85-2.37,4.27-4.53,8.33-4.53,3.69,0,6.49,1.63,7.96,4.48,2.48-2.9,5.43-4.48,9.28-4.48,5.96,0,9.54,3.59,9.54,10.39v18.4h-8.01v-15.76c0-3.8-1.69-5.75-4.69-5.75s-4.85,1.95-4.85,5.75v15.76h-8.01v-15.76c0-3.8-1.69-5.75-4.69-5.75s-4.85,1.95-4.85,5.75v15.76h-8.01v-28.26Z"/>
        <path class="cls-3" d="M762.21,261.8v-.11c0-8.12,6.54-14.71,15.34-14.71s15.24,6.49,15.24,14.61v.11c0,8.12-6.54,14.71-15.34,14.71s-15.24-6.49-15.24-14.6ZM784.88,261.8v-.11c0-4.17-3-7.8-7.43-7.8s-7.33,3.53-7.33,7.7v.11c0,4.17,3,7.8,7.43,7.8s7.33-3.53,7.33-7.7Z"/>
        <path class="cls-3" d="M803.07,267.76v-13.39h-3.37v-6.85h3.37v-7.22h8.01v7.22h6.64v6.85h-6.64v12.07c0,1.85.79,2.74,2.58,2.74,1.48,0,2.79-.37,3.95-1v6.43c-1.69,1-3.64,1.63-6.33,1.63-4.9,0-8.23-1.95-8.23-8.49Z"/>
        <path class="cls-3" d="M827.49,237.28h8.44v7.12h-8.44v-7.12ZM827.7,247.51h8.01v28.26h-8.01v-28.26Z"/>
        <path class="cls-3" d="M844.52,261.8v-.11c0-8.12,6.54-14.71,15.34-14.71s15.24,6.49,15.24,14.61v.11c0,8.12-6.54,14.71-15.34,14.71s-15.24-6.49-15.24-14.6ZM867.19,261.8v-.11c0-4.17-3.01-7.8-7.44-7.8s-7.33,3.53-7.33,7.7v.11c0,4.17,3,7.8,7.43,7.8s7.33-3.53,7.33-7.7Z"/>
        <path class="cls-3" d="M882.49,247.51h8.01v4.01c1.85-2.37,4.22-4.53,8.28-4.53,6.06,0,9.6,4.01,9.6,10.49v18.3h-8.01v-15.76c0-3.8-1.79-5.75-4.85-5.75s-5.01,1.95-5.01,5.75v15.76h-8.01v-28.26Z"/>
      </g>
    </g>
    <g>
      <rect class="cls-4" x="955.9" y="220.11" width="135.37" height="81.33" rx="16.47" ry="16.47"/>
      <g>
        <path class="cls-3" d="M978.04,267.66v-.11c0-6.17,4.69-9.02,11.39-9.02,2.85,0,4.9.48,6.91,1.16v-.47c0-3.32-2.06-5.17-6.06-5.17-3.06,0-5.22.58-7.8,1.53l-2-6.12c3.11-1.37,6.17-2.27,10.97-2.27,4.38,0,7.54,1.16,9.54,3.16,2.11,2.11,3.06,5.22,3.06,9.02v16.4h-7.75v-3.06c-1.95,2.16-4.64,3.58-8.54,3.58-5.32,0-9.7-3.06-9.7-8.65ZM996.44,265.81v-1.42c-1.37-.63-3.16-1.05-5.11-1.05-3.43,0-5.54,1.37-5.54,3.9v.11c0,2.16,1.79,3.43,4.38,3.43,3.74,0,6.27-2.06,6.27-4.96Z"/>
        <path class="cls-3" d="M1012.47,261.8v-.11c0-8.07,5.75-14.71,13.97-14.71,9.44,0,13.76,7.33,13.76,15.34,0,.63-.05,1.37-.11,2.11h-19.67c.79,3.64,3.32,5.54,6.91,5.54,2.69,0,4.64-.84,6.85-2.9l4.59,4.06c-2.64,3.27-6.43,5.27-11.55,5.27-8.49,0-14.76-5.96-14.76-14.6ZM1032.4,259.43c-.48-3.58-2.58-6.01-5.96-6.01s-5.48,2.37-6.12,6.01h12.07Z"/>
        <path class="cls-3" d="M1046.32,272.03l3.43-5.27c3.06,2.21,6.27,3.37,8.91,3.37,2.32,0,3.37-.84,3.37-2.11v-.11c0-1.74-2.74-2.32-5.85-3.27-3.96-1.16-8.44-3-8.44-8.49v-.11c0-5.75,4.64-8.96,10.33-8.96,3.59,0,7.49,1.21,10.55,3.27l-3.06,5.54c-2.79-1.64-5.59-2.64-7.65-2.64s-2.95.84-2.95,1.95v.11c0,1.58,2.69,2.32,5.75,3.37,3.96,1.32,8.54,3.22,8.54,8.38v.11c0,6.27-4.69,9.12-10.81,9.12-3.95,0-8.38-1.32-12.13-4.27Z"/>
      </g>
    </g>
  </g>
  <g>
    <path class="cls-3" d="M590.92,118.14v31.99c0,11.04,8.95,20,20,20h54.61v-17.22h-53.38c-2.21,0-4-1.79-4-4v-5.16c0-.55.45-1,1-1h41.17c9.51,0,17.23-7.71,17.23-17.22v-7.38c0-11.04-8.95-20-20-20h-36.62c-11.05,0-20,8.95-20,20ZM608.14,124.53v-5.16c0-2.21,1.79-4,4-4h34.17c2.21,0,4,1.79,4,4v2.16c0,2.21-1.79,4-4,4h-37.17c-.55,0-1-.45-1-1Z"/>
    <path class="cls-3" d="M1014.64,118.14v31.99c0,11.04,8.95,20,20,20h54.61v-17.22h-53.38c-2.21,0-4-1.79-4-4v-5.16c0-.55.45-1,1-1h41.17c9.51,0,17.23-7.71,17.23-17.22v-7.38c0-11.04-8.95-20-20-20h-36.62c-11.05,0-20,8.95-20,20ZM1031.86,124.53v-5.16c0-2.21,1.79-4,4-4h34.17c2.21,0,4,1.79,4,4v2.16c0,2.21-1.79,4-4,4h-37.17c-.55,0-1-.45-1-1Z"/>
    <path class="cls-3" d="M169.2,98.14h0v98.14h17.22v-26.16h39.56c11.05,0,20-8.95,20-20v-31.99c0-11.04-8.95-20-20-20h-56.79ZM224.77,152.91h-37.34c-.55,0-1-.45-1-1v-35.55c0-.55.45-1,1-1h37.34c2.21,0,4,1.79,4,4v29.55c0,2.21-1.79,4-4,4Z"/>
    <path class="cls-3" d="M785.14,118.14v31.99c0,11.04,8.95,20,20,20h38.56c.55,0,1,.45,1,1v3.94c0,2.21-1.79,4-4,4h-53.42v17.22h54.64c11.05,0,20-8.95,20-20v-78.15h-56.79c-11.05,0-20,8.95-20,20ZM843.7,152.91h-37.34c-2.21,0-4-1.79-4-4v-29.55c0-2.21,1.79-4,4-4h37.34c.55,0,1,.45,1,1v35.55c0,.55-.45,1-1,1Z"/>
    <path class="cls-3" d="M478.75,115.36v-17.22h-20.79v-15.13h-17.22v15.13h-11.23v17.22h11.23v34.77c0,11.04,8.95,20,20,20h18.01v-17.22h-16.79c-2.21,0-4-1.79-4-4v-33.55h20.79Z"/>
    <path class="cls-3" d="M261.16,118.14v31.99c0,11.04,8.95,20,20,20h36.79c11.05,0,20-8.95,20-20v-31.99c0-11.04-8.95-20-20-20h-36.79c-11.05,0-20,8.95-20,20ZM316.72,152.91h-34.34c-2.21,0-4-1.79-4-4v-29.55c0-2.21,1.79-4,4-4h34.34c2.21,0,4,1.79,4,4v29.55c0,2.21-1.79,4-4,4Z"/>
    <path class="cls-3" d="M688.8,98.14v71.99h17.22v-54.77h38.34c2.21,0,4,1.79,4,4v50.77h17.22v-51.99c0-11.04-8.95-20-20-20h-56.79Z"/>
    <path class="cls-3" d="M918.45,98.14v71.99h17.22v-54.77h38.34c2.21,0,4,1.79,4,4v50.77h17.22v-51.99c0-11.04-8.95-20-20-20h-56.79Z"/>
    <g>
      <rect class="cls-3" x="881.52" y="98.14" width="17.22" height="71.99"/>
      <rect class="cls-3" x="881.52" y="71.99" width="17.22" height="18.13"/>
    </g>
    <path class="cls-3" d="M355.03,98.14h0v71.99h17.22v-53.77c0-.55.45-1,1-1h22.8c2.21,0,4,1.79,4,4v9.2h17.22v-10.43c0-11.04-8.95-20-20-20h-42.25Z"/>
    <path class="cls-3" d="M93.4,121.53v-2.16c0-2.21,1.79-4,4-4h53.42v-17.22h-54.64c-11.05,0-20,8.95-20,20v4.61c0,11.04,8.95,20,20,20h35.39c2.21,0,4,1.79,4,4v2.16c0,2.21-1.79,4-4,4h-53.41v17.22h52.64c12.15,0,22-9.85,22-22v-2.61c0-11.04-8.95-20-20-20h-35.39c-2.21,0-4-1.79-4-4Z"/>
    <path class="cls-3" d="M517.13,121.53v-2.16c0-2.21,1.79-4,4-4h53.42v-17.22h-54.64c-11.05,0-20,8.95-20,20v4.61c0,11.04,8.95,20,20,20h35.39c2.21,0,4,1.79,4,4v2.16c0,2.21-1.79,4-4,4h-53.41v17.22h52.64c12.15,0,22-9.85,22-22v-2.61c0-11.04-8.95-20-20-20h-35.39c-2.21,0-4-1.79-4-4Z"/>
  </g>
</svg>