<?xml version="1.0" encoding="UTF-8"?>
<svg id="Layer_1" data-name="Layer 1" xmlns="http://www.w3.org/2000/svg" viewBox="0 0 1168.58 268.27">
  <defs>
    <style>
      .cls-1 {
        fill: #2e2e2e;
      }
    </style>
  </defs>
  <path class="cls-1" d="M591.46,118.14v31.99c0,11.04,8.95,20,20,20h54.61v-17.22h-53.38c-2.21,0-4-1.79-4-4v-5.16c0-.55.45-1,1-1h41.17c9.51,0,17.23-7.71,17.23-17.22v-7.38c0-11.04-8.95-20-20-20h-36.62c-11.05,0-20,8.95-20,20ZM608.68,124.53v-5.16c0-2.21,1.79-4,4-4h34.17c2.21,0,4,1.79,4,4v2.16c0,2.21-1.79,4-4,4h-37.17c-.55,0-1-.45-1-1Z"/>
  <path class="cls-1" d="M1015.18,118.14v31.99c0,11.04,8.95,20,20,20h54.61v-17.22h-53.38c-2.21,0-4-1.79-4-4v-5.16c0-.55.45-1,1-1h41.17c9.51,0,17.23-7.71,17.23-17.22v-7.38c0-11.04-8.95-20-20-20h-36.62c-11.05,0-20,8.95-20,20ZM1032.4,124.53v-5.16c0-2.21,1.79-4,4-4h34.17c2.21,0,4,1.79,4,4v2.16c0,2.21-1.79,4-4,4h-37.17c-.55,0-1-.45-1-1Z"/>
  <path class="cls-1" d="M169.74,98.14h0v98.14h17.22v-26.16h39.56c11.05,0,20-8.95,20-20v-31.99c0-11.04-8.95-20-20-20h-56.79ZM225.31,152.91h-37.34c-.55,0-1-.45-1-1v-35.55c0-.55.45-1,1-1h37.34c2.21,0,4,1.79,4,4v29.55c0,2.21-1.79,4-4,4Z"/>
  <path class="cls-1" d="M785.68,118.14v31.99c0,11.04,8.95,20,20,20h38.56c.55,0,1,.45,1,1v3.94c0,2.21-1.79,4-4,4h-53.42v17.22h54.64c11.05,0,20-8.95,20-20v-78.15h-56.79c-11.05,0-20,8.95-20,20ZM844.24,152.91h-37.34c-2.21,0-4-1.79-4-4v-29.55c0-2.21,1.79-4,4-4h37.34c.55,0,1,.45,1,1v35.55c0,.55-.45,1-1,1Z"/>
  <path class="cls-1" d="M479.29,115.36v-17.22h-20.79v-15.13h-17.22v15.13h-11.23v17.22h11.23v34.77c0,11.04,8.95,20,20,20h18.01v-17.22h-16.79c-2.21,0-4-1.79-4-4v-33.55h20.79Z"/>
  <path class="cls-1" d="M261.7,118.14v31.99c0,11.04,8.95,20,20,20h36.79c11.05,0,20-8.95,20-20v-31.99c0-11.04-8.95-20-20-20h-36.79c-11.05,0-20,8.95-20,20ZM317.26,152.91h-34.34c-2.21,0-4-1.79-4-4v-29.55c0-2.21,1.79-4,4-4h34.34c2.21,0,4,1.79,4,4v29.55c0,2.21-1.79,4-4,4Z"/>
  <path class="cls-1" d="M689.34,98.14v71.99h17.22v-54.77h38.34c2.21,0,4,1.79,4,4v50.77h17.22v-51.99c0-11.04-8.95-20-20-20h-56.79Z"/>
  <path class="cls-1" d="M918.99,98.14v71.99h17.22v-54.77h38.34c2.21,0,4,1.79,4,4v50.77h17.22v-51.99c0-11.04-8.95-20-20-20h-56.79Z"/>
  <g>
    <rect class="cls-1" x="882.06" y="98.14" width="17.22" height="71.99"/>
    <rect class="cls-1" x="882.06" y="71.99" width="17.22" height="18.13"/>
  </g>
  <path class="cls-1" d="M355.57,98.14h0v71.99h17.22v-53.77c0-.55.45-1,1-1h22.8c2.21,0,4,1.79,4,4v9.2h17.22v-10.43c0-11.04-8.95-20-20-20h-42.25Z"/>
  <path class="cls-1" d="M93.94,121.53v-2.16c0-2.21,1.79-4,4-4h53.42v-17.22h-54.64c-11.05,0-20,8.95-20,20v4.61c0,11.04,8.95,20,20,20h35.39c2.21,0,4,1.79,4,4v2.16c0,2.21-1.79,4-4,4h-53.41v17.22h52.64c12.15,0,22-9.85,22-22v-2.61c0-11.04-8.95-20-20-20h-35.39c-2.21,0-4-1.79-4-4Z"/>
  <path class="cls-1" d="M517.67,121.53v-2.16c0-2.21,1.79-4,4-4h53.42v-17.22h-54.64c-11.05,0-20,8.95-20,20v4.61c0,11.04,8.95,20,20,20h35.39c2.21,0,4,1.79,4,4v2.16c0,2.21-1.79,4-4,4h-53.41v17.22h52.64c12.15,0,22-9.85,22-22v-2.61c0-11.04-8.95-20-20-20h-35.39c-2.21,0-4-1.79-4-4Z"/>
</svg>